<svg width="512" height="512" viewBox="0 0 512 512" xmlns="http://www.w3.org/2000/svg">
  <defs>
    <linearGradient id="bgGradient" x1="0%" y1="0%" x2="100%" y2="100%">
      <stop offset="0%" style="stop-color:#4338CA;stop-opacity:1" />
      <stop offset="100%" style="stop-color:#6366F1;stop-opacity:1" />
    </linearGradient>
  </defs>
  <rect width="512" height="512" rx="48" fill="url(#bgGradient)"/>
  
  <!-- Main card shape -->
  <rect x="96" y="128" width="320" height="224" rx="16" fill="#FFFFFF" opacity="0.95"/>
  
  <!-- Card header -->
  <rect x="112" y="144" width="288" height="32" rx="4" fill="#4338CA"/>
  <text x="256" y="166" text-anchor="middle" fill="#FFFFFF" font-family="serif" font-size="18" font-weight="bold">WARLOK CARD</text>
  
  <!-- Card art area -->
  <rect x="128" y="192" width="160" height="112" rx="8" fill="#E5E7EB"/>
  
  <!-- Dragon silhouette in card art -->
  <path d="M168 220 Q148 200 158 180 Q178 170 198 185 Q218 175 238 180 Q258 170 278 185 Q288 200 268 220 Q278 240 258 260 Q238 265 218 255 Q198 265 178 260 Q158 240 168 220 Z" fill="#DC2626" opacity="0.8"/>
  
  <!-- Level stars -->
  <text x="304" y="216" fill="#FFD700" font-family="serif" font-size="24">★★★★★★★</text>
  
  <!-- Monster type -->
  <rect x="112" y="316" width="288" height="20" rx="2" fill="#FED7AA"/>
  <text x="256" y="330" text-anchor="middle" fill="#9A3412" font-family="serif" font-size="14">[Dragon/Normal]</text>
  
  <!-- ATK/DEF -->
  <rect x="112" y="344" width="288" height="24" rx="2" fill="#FECACA"/>
  <text x="140" y="360" fill="#DC2626" font-family="monospace" font-size="16" font-weight="bold">ATK/2400</text>
  <text x="280" y="360" fill="#2563EB" font-family="monospace" font-size="16" font-weight="bold">DEF/2000</text>
  
  <!-- App title -->
  <text x="256" y="420" text-anchor="middle" fill="#FFFFFF" font-family="serif" font-size="36" font-weight="bold">WARLOK</text>
  <text x="256" y="460" text-anchor="middle" fill="#FFFFFF" font-family="serif" font-size="24">Trading Card Game</text>
</svg>
